<!-- Generator: Adobe Illustrator 21.0.2, SVG Export Plug-In  -->
<svg version="1.1"
	 xmlns="http://www.w3.org/2000/svg" xmlns:xlink="http://www.w3.org/1999/xlink" xmlns:a="http://ns.adobe.com/AdobeSVGViewerExtensions/3.0/"
	 x="0px" y="0px" width="311.3px" height="125.9px" viewBox="0 0 311.3 125.9" style="enable-background:new 0 0 311.3 125.9;"
	 xml:space="preserve">
<style type="text/css">
	.st0{fill:#009648;}
	.st1{fill:#2B50A3;}
</style>
<defs>
</defs>
<g>
	<path class="st0" d="M114,76.5c3.1,0,6,0,9,0c-5.2,25.5-28.5,48.7-59.8,49.4C29.5,126.6,5.3,102.3,0,76.5c3,0,5.9,0,8.9,0
		c0-5.1,0-10,0-15.2c0.8,0.2,1.5,0.4,2.1,0.6c15.1,4.8,30.1,9.5,45.2,14.2c0.4,0.1,0.9,0.2,1.3,0.2c2.6,0,5.2,0,7.8,0
		c0.5,0,0.7-0.2,0.7-0.6c0-2.5,0-5.1,0-7.6c0-0.6,0.1-0.8,0.7-0.8c15.5,0,31,0,46.6,0c0.6,0,0.7,0.2,0.7,0.7c0,2.5,0,5,0,7.5
		C114,75.9,114,76.1,114,76.5z"/>
	<path class="st1" d="M101.5,14.3c-1.6,0.8-3.2,1.5-4.8,2.2c-11.5,5.3-23,10.6-34.4,16c-0.5,0.2-0.9,0.2-1.4,0
		c-12.9-6-25.8-12-38.7-18c-0.2-0.1-0.3-0.2-0.6-0.3C31.7,6,43.2,1.4,56.1,0.3C77.3-1.6,93.1,7.3,101.5,14.3z"/>
	<path class="st1" d="M123,49.4c-3,0-6,0-9,0c0,0.3,0,0.5,0,0.8c0,2.5,0,5,0,7.6c0,0.5-0.1,0.7-0.7,0.7c-15.5,0-31.1,0-46.6,0
		c-0.5,0-0.7-0.2-0.7-0.7c0-4.8,0-9.6,0-14.5c0-0.6,0.3-0.8,0.7-0.9c11.8-5.4,23.6-10.9,35.4-16.4c2.3-1.1,4.7-2.1,6.9-3.2
		c0.6-0.3,0.9-0.1,1.3,0.3c2.2,2.8,4.2,5.7,5.9,8.7C119.4,37.3,121.6,43.2,123,49.4z"/>
	<path class="st1" d="M0,49.5c0.7-3.4,1.7-6.6,2.9-9.7c2.4-6.1,5.7-11.5,9.7-16.6c0.4-0.5,0.7-0.6,1.3-0.3
		c14.1,6.5,28.2,13,42.3,19.6c0.5,0.2,0.7,0.5,0.7,1.1c0,6.8,0,13.6,0.1,20.4c0,0.2,0,0.5,0,0.8c-1.3-0.4-2.5-0.8-3.7-1.2
		c-14.6-4.6-29.1-9.2-43.7-13.8c-0.4-0.1-0.8-0.2-1.2-0.2c-2.6,0-5.2,0-7.7,0C0.5,49.5,0.3,49.5,0,49.5z"/>
</g>
<g>
	<path class="st1" d="M141.7,63.5l-3.7,6.2v4.9c0.5,1.2,1.6,1.3,2.7,1.3v0.8h-8.8V76c1.1,0,2.4-0.2,2.8-1v-5l-3.8-6.5
		c-0.7-1.2-1.3-1.6-2.7-1.7V61h7.8v0.7c-1.3,0.1-1.6,0.3-2,0.6l3.3,5.9l3.3-5.8c-0.4-0.3-0.7-0.7-2-0.8V61h5.7v0.7
		C143,61.8,142.4,62.3,141.7,63.5z"/>
	<path class="st1" d="M149.7,77c-1.3,0-1.8-1-1.9-1.6c-0.8,0.9-2.2,1.6-3.1,1.6c-1.2,0-2.4-0.9-2.4-2.4c0-0.7,0.1-1.6,0.5-2.2l5-1.8
		l0-1.6c0-1.1-0.6-2.2-1.3-2.2c-0.4,0-0.8,0.7-0.8,2.1l-3.1,0.4v-0.5c0.8-2.1,3.8-3.1,5-3.1c2.5,0,3.4,1.2,3.4,3.1l-0.1,5.3
		c0,1,0.5,1.3,1,1.3c0.5,0,0.8-0.1,1.4-0.5v0.9C152.7,76.2,151.1,77,149.7,77z M145.8,72.5c0,0.3-0.2,0.8-0.2,1.3
		c0,0.7,0.3,1.3,0.8,1.3c0.6,0,1-0.1,1.4-0.4l0-3.4C147.4,71.6,146.3,72.2,145.8,72.5z"/>
	<path class="st1" d="M153.3,76.7V76c1.1-0.1,1.3-0.3,1.5-0.7V62.3c0-0.8,0-1.2-1.6-1.4v-0.7l4.6-1.1h0.5v0.5l-0.5,0.8v14.7
		c0.2,0.5,0.5,0.6,1.6,0.7v0.7H153.3z"/>
	<path class="st1" d="M165.2,76.9c-2.7,0-4.8-2.1-4.8-5.1c0-3.6,2.3-6.1,5.5-6.1c2.7,0,3.9,1.4,3.9,3.9v0.6l-6.3,0c0,0.2,0,0.7,0,1
		c0,2.3,1.6,3.8,3.5,3.8c1.1,0,1.9-0.3,2.7-1l0.5,0.8C168.7,76.1,167.4,76.9,165.2,76.9z M165.4,66.6c-1,0-1.6,0.9-1.7,2.7l3.1,0
		C166.8,67.7,166.3,66.6,165.4,66.6z"/>
	<path class="st1" d="M171.9,72.1v-2.6h7v2.6H171.9z"/>
	<path class="st1" d="M195.5,62.9v9.3c0,1.3,0.1,3.6,0.1,4.7h-1.9l-8.8-11.3l-0.8-1.6l0.1,1.5v5.1c0,1.3,0.1,3.2,0.1,4.2
		c0.2,0.5,1.6,1.1,2.7,1.2v0.8h-6.7V76c1.1,0,2.1-0.7,2.3-1.2v-8.7c0-1,0-2.3-0.1-3.3c-0.2-0.5-1.1-1-2.2-1.1V61h5.2l1.3,1.8
		l7.2,9.2v-4.9c0-1.4-0.1-3.4-0.1-4.2c-0.2-0.5-1.6-1.1-2.7-1.2V61h6.6v0.7C196.6,61.8,195.7,62.4,195.5,62.9z"/>
	<path class="st1" d="M203.1,76.9c-2.7,0-4.8-2.1-4.8-5.1c0-3.6,2.3-6.1,5.5-6.1c2.7,0,3.9,1.4,3.9,3.9v0.6l-6.3,0c0,0.2,0,0.7,0,1
		c0,2.3,1.6,3.8,3.5,3.8c1.1,0,1.9-0.3,2.7-1l0.5,0.8C206.5,76.1,205.2,76.9,203.1,76.9z M203.2,66.6c-1,0-1.6,0.9-1.7,2.7l3.1,0
		C204.6,67.7,204.2,66.6,203.2,66.6z"/>
	<path class="st1" d="M224.7,68.2l-3.4,8.5l-1.7,0.1l-2.1-6.4l-2.3,6.2l-1.6,0.1l-3.4-9c-0.3-0.6-0.8-1.1-1.8-1.1V66h6.1v0.7
		c-0.5,0-0.9,0.2-1.3,0.4l2.3,6.2l1.6-4.3l-0.4-1.3c-0.3-0.8-0.7-1-1.5-1.1V66h5.9v0.7c-0.8,0-1.1,0.2-1.4,0.4l2.1,6.2l2.1-5.7
		c-0.2-0.4-0.7-0.9-1.7-0.9V66h4.5v0.7C225.5,66.8,224.9,67.5,224.7,68.2z"/>
	<path class="st1" d="M242.4,76.7V76c1.1,0,2-0.4,2.2-0.9v-5.7h-6.8v5.7c0.2,0.5,1.1,0.8,2.2,0.9v0.8h-7.8V76c1.1,0,2-0.4,2.2-0.9
		V62.6c-0.2-0.5-1.1-0.8-2.2-0.9V61h7.8v0.7c-1.1,0-2,0.4-2.2,0.9V68h6.8v-5.4c-0.2-0.5-1.1-0.8-2.2-0.9V61h7.8v0.7
		c-1.1,0-2,0.4-2.2,0.9v12.5c0.2,0.5,1.1,0.8,2.2,0.9v0.8H242.4z"/>
	<path class="st1" d="M258.5,77c-1.3,0-1.8-1-1.9-1.6c-0.8,0.9-2.2,1.6-3.1,1.6c-1.2,0-2.4-0.9-2.4-2.4c0-0.7,0.1-1.6,0.5-2.2l5-1.8
		l0-1.6c0-1.1-0.6-2.2-1.3-2.2c-0.4,0-0.8,0.7-0.8,2.1l-3.1,0.4v-0.5c0.8-2.1,3.8-3.1,5-3.1c2.5,0,3.4,1.2,3.4,3.1l-0.1,5.3
		c0,1,0.5,1.3,1,1.3c0.5,0,0.8-0.1,1.4-0.5v0.9C261.5,76.2,259.9,77,258.5,77z M254.6,72.5c0,0.3-0.2,0.8-0.2,1.3
		c0,0.7,0.3,1.3,0.8,1.3c0.6,0,1-0.1,1.4-0.4l0-3.4C256.2,71.6,255.1,72.2,254.6,72.5z"/>
	<path class="st1" d="M271.5,68.2l-3.5,8.5l-1.6,0.2l-3.4-9.1c-0.2-0.6-0.8-1.1-1.8-1.1V66h6.3v0.7c-0.8,0-1.2,0.2-1.5,0.4l2.3,6.3
		l2.1-5.8c-0.2-0.4-0.8-0.9-1.7-0.9V66h4.6v0.7C272.3,66.8,271.8,67.6,271.5,68.2z"/>
	<path class="st1" d="M278.3,76.9c-2.7,0-4.8-2.1-4.8-5.1c0-3.6,2.3-6.1,5.5-6.1c2.7,0,3.9,1.4,3.9,3.9v0.6l-6.3,0c0,0.2,0,0.7,0,1
		c0,2.3,1.6,3.8,3.5,3.8c1.1,0,1.9-0.3,2.7-1l0.5,0.8C281.7,76.1,280.4,76.9,278.3,76.9z M278.4,66.6c-1,0-1.6,0.9-1.7,2.7l3.1,0
		C279.8,67.7,279.4,66.6,278.4,66.6z"/>
	<path class="st1" d="M291,76.7V76c0.8-0.1,1-0.3,1.2-0.7v-5.2c0-1.3-0.7-2.5-1.6-2.5c-0.5,0-1.3,0.1-1.8,0.5v7.2
		c0.2,0.5,0.6,0.7,1.2,0.7v0.7h-5.8V76c0.9-0.1,1.3-0.3,1.5-0.7v-6.4c0-0.5-0.4-1-1.5-1.3v-0.7l4.1-1.2h0.4v1.8
		c1-0.8,2.9-1.7,3.7-1.7c2.1,0,2.8,1.4,2.8,3.4v6.4c0.4,0.4,1.2,0.4,1.9,0.5v0.8H291z"/>
	<path class="st1" d="M143.3,95c0-2.1-1.2-2.9-3-2.9l-2,0v12.3c0.5,1.2,1.8,1.3,2.9,1.4v0.8h-9.2v-0.8c1.1,0,2.6-0.3,2.9-1V92.1
		l-2,0c-1.8,0-2.9,0.8-2.9,2.9h-0.7v-4.4h0.6c0.3,0.1,0.6,0.2,1.4,0.2H142c0.6,0,1.1-0.1,1.4-0.2h0.6V95H143.3z"/>
	<path class="st1" d="M147.2,106.7c-2.7,0-4.8-2.1-4.8-5.1c0-3.6,2.3-6.1,5.5-6.1c2.7,0,3.9,1.4,3.9,3.9v0.6l-6.3,0c0,0.2,0,0.7,0,1
		c0,2.3,1.6,3.8,3.5,3.8c1.1,0,1.9-0.3,2.7-1l0.5,0.8C150.7,105.9,149.4,106.7,147.2,106.7z M147.4,96.4c-1,0-1.6,0.9-1.7,2.7l3.1,0
		C148.8,97.5,148.3,96.4,147.4,96.4z"/>
	<path class="st1" d="M160.5,106.7c-1.3,0-1.8-1-1.9-1.6c-0.8,0.9-2.2,1.6-3.1,1.6c-1.2,0-2.4-0.9-2.4-2.4c0-0.7,0.1-1.6,0.5-2.2
		l5-1.8l0-1.6c0-1.1-0.6-2.2-1.3-2.2c-0.4,0-0.8,0.7-0.8,2.1l-3.1,0.4v-0.5c0.8-2.1,3.8-3.1,5-3.1c2.5,0,3.4,1.2,3.4,3.1l-0.1,5.3
		c0,1,0.5,1.3,1,1.3c0.5,0,0.8-0.1,1.4-0.5v0.9C163.4,106,161.8,106.7,160.5,106.7z M156.6,102.3c0,0.3-0.2,0.8-0.2,1.3
		c0,0.7,0.3,1.3,0.8,1.3c0.6,0,1-0.1,1.4-0.4l0-3.4C158.1,101.4,157,101.9,156.6,102.3z"/>
	<path class="st1" d="M169,106.7c-2.7,0-4.8-2.1-4.8-5c0-3.8,2.6-6.2,6.1-6.2c1.9,0,2.9,0.9,3.1,1.3c0,0.5-0.8,2.1-1.3,2.3
		c-1.3-1-2-1.6-3.5-2.4c-0.4,0.3-1.2,1.5-1.2,3.9c0,2.5,1.3,4.1,3.4,4.1c0.8,0,1.7-0.5,2.3-1.1l0.5,0.8
		C172.2,105.9,170.6,106.7,169,106.7z"/>
	<path class="st1" d="M180.8,106.5v-0.7c0.7-0.1,1.1-0.3,1.2-0.8c0.1-0.7,0.1-2.1,0.1-3.7c0-2.3-0.2-3.9-1.9-3.9
		c-0.4,0-1.4,0.2-1.7,0.4v7.3c0.1,0.5,0.5,0.6,1.2,0.7v0.7h-5.7v-0.7c1-0.1,1.2-0.3,1.4-0.7V92.1c0-0.9,0-1.2-1.6-1.4V90l4.6-1.1
		h0.5v0.5l-0.4,0.8V97c1-0.8,2.6-1.6,3.5-1.6c3,0,3.3,2.8,3.3,5.4c0,2.1-0.3,4.5-0.3,4.5c0.4,0.2,1.4,0.3,1.8,0.4v0.7H180.8z"/>
	<path class="st1" d="M192.5,106.7c-2.7,0-4.8-2.1-4.8-5.1c0-3.6,2.3-6.1,5.5-6.1c2.7,0,3.9,1.4,3.9,3.9v0.6l-6.3,0c0,0.2,0,0.7,0,1
		c0,2.3,1.6,3.8,3.5,3.8c1.1,0,1.9-0.3,2.7-1l0.5,0.8C196,105.9,194.7,106.7,192.5,106.7z M192.7,96.4c-1,0-1.6,0.9-1.7,2.7l3.1,0
		C194.1,97.5,193.6,96.4,192.7,96.4z"/>
	<path class="st1" d="M206.7,99h-0.4c-0.4-0.3-1.4-0.7-2-0.7c-0.6,0-0.9,0-1.3,0.2v6.3c0.2,0.5,1.1,0.6,2.1,0.8v0.8h-6.5v-0.8
		c1.1-0.1,1.2-0.3,1.4-0.7v-6.6c0-0.5-0.3-0.9-1.5-1.2v-0.7l4-1.2h0.4l0,2.5c1.1-1.2,2.1-2.4,3.1-2.4c0.7,0,1.1,0.2,1.7,0.5
		L206.7,99z"/>
	<path class="st1" d="M212.5,106.7c-2.1,0-3.3-0.4-4-0.7l-0.3-3h0.8c0.7,1.4,2,2.7,2.4,2.7c1.8,0,2.4-0.7,2.4-1.6c0-1-1-1.4-2.3-1.9
		c-2-0.7-3-1.7-3-3.5c0-1.8,2-3.3,4.4-3.3c1.5,0,2.7,0.4,3.4,0.7l0.1,2.9h-0.7c-0.7-1.4-1.7-2.6-2.2-2.6c-1.7,0-2.2,0.8-2.2,1.4
		c0,1,0.6,1.4,2.3,2.1c1.9,0.7,3,1.7,3,3.4C216.7,105.2,214.9,106.7,212.5,106.7z"/>
	<path class="st1" d="M223.5,106.5v-0.8c1.1,0,2.2-0.4,2.4-0.9V92.4c-0.2-0.5-1.3-0.8-2.4-0.9v-0.7h8.1v0.7c-1.1,0-2.2,0.4-2.4,0.9
		v12.5c0.2,0.5,1.3,0.8,2.4,0.9v0.8H223.5z"/>
	<path class="st1" d="M239.3,106.5v-0.8c0.8-0.1,1-0.3,1.2-0.7v-5.2c0-1.3-0.7-2.5-1.6-2.5c-0.5,0-1.3,0.1-1.8,0.5v7.2
		c0.2,0.5,0.6,0.7,1.2,0.7v0.7h-5.8v-0.7c0.9-0.1,1.3-0.3,1.5-0.7v-6.4c0-0.5-0.4-1-1.5-1.3v-0.7l4.1-1.2h0.4v1.8
		c1-0.8,2.9-1.7,3.7-1.7c2.1,0,2.8,1.4,2.8,3.4v6.4c0.4,0.4,1.2,0.4,1.9,0.5v0.8H239.3z"/>
	<path class="st1" d="M250.6,106.7c-2.1,0-3.3-0.4-4-0.7l-0.3-3h0.8c0.7,1.4,2,2.7,2.4,2.7c1.8,0,2.4-0.7,2.4-1.6c0-1-1-1.4-2.3-1.9
		c-2-0.7-3-1.7-3-3.5c0-1.8,2-3.3,4.4-3.3c1.5,0,2.7,0.4,3.4,0.7l0.1,2.9h-0.7c-0.7-1.4-1.7-2.6-2.2-2.6c-1.7,0-2.2,0.8-2.2,1.4
		c0,1,0.6,1.4,2.3,2.1c1.9,0.7,3,1.7,3,3.4C254.8,105.2,252.9,106.7,250.6,106.7z"/>
	<path class="st1" d="M260.6,106.7c-2.6,0-3.4-1.2-3.4-3.2c0-2.4,0.1-4,0.2-6.4h-1.3v-0.7l3.9-3h0.5l0,2.4h3.5v1.3l-3.5,0
		c0,2.5-0.1,3.6-0.1,5.8c0,1.4,0.8,2.2,2.2,2.2c0.5,0,1.3-0.3,1.6-0.4v0.8C263.4,106,261.5,106.7,260.6,106.7z"/>
	<path class="st1" d="M264.5,106.5v-0.8c1.1-0.1,1.2-0.3,1.5-0.7l0-6.5c0-0.6-0.3-1-1.5-1.3v-0.6l4.1-1.2h0.4v9.6
		c0.2,0.5,0.4,0.6,1.5,0.7v0.8H264.5z M267.4,92.9c-1.1,0-1.9-0.9-1.9-1.8c0-0.9,0.8-1.8,1.9-1.8c1.1,0,1.9,1,1.9,1.8
		C269.3,91.9,268.5,92.9,267.4,92.9z"/>
	<path class="st1" d="M276,106.7c-2.6,0-3.4-1.2-3.4-3.2c0-2.4,0.1-4,0.2-6.4h-1.3v-0.7l3.9-3h0.5l0,2.4h3.5v1.3l-3.5,0
		c0,2.5-0.1,3.6-0.1,5.8c0,1.4,0.8,2.2,2.2,2.2c0.5,0,1.3-0.3,1.6-0.4v0.8C278.8,106,277,106.7,276,106.7z"/>
	<path class="st1" d="M288.2,106.8h-0.4l-0.1-1.7c-1,0.8-2.9,1.6-3.8,1.6c-2.1,0-2.7-1.4-2.7-3.4v-5.1c0-0.9-0.4-1.2-1.6-1.5v-0.7
		l4.3-0.6h0.4l0,6.9c0,1.3,0.6,2.5,1.6,2.5c0.7,0,1.3-0.1,1.8-0.4v-6.1c0-1-0.2-1.3-1.9-1.5v-0.7l4.6-0.6h0.4v8.6
		c0,0.5,0.3,0.9,0.5,1l1.6-0.3v0.8L288.2,106.8z"/>
	<path class="st1" d="M297.7,106.7c-2.6,0-3.4-1.2-3.4-3.2c0-2.4,0.1-4,0.2-6.4h-1.3v-0.7l3.9-3h0.5l0,2.4h3.5v1.3l-3.5,0
		c0,2.5-0.1,3.6-0.1,5.8c0,1.4,0.8,2.2,2.2,2.2c0.5,0,1.3-0.3,1.6-0.4v0.8C300.6,106,298.7,106.7,297.7,106.7z"/>
	<path class="st1" d="M306.3,106.7c-2.7,0-4.8-2.1-4.8-5.1c0-3.6,2.3-6.1,5.5-6.1c2.7,0,3.9,1.4,3.9,3.9v0.6l-6.3,0c0,0.2,0,0.7,0,1
		c0,2.3,1.6,3.8,3.5,3.8c1.1,0,1.9-0.3,2.7-1l0.5,0.8C309.8,105.9,308.5,106.7,306.3,106.7z M306.5,96.4c-1,0-1.6,0.9-1.7,2.7l3.1,0
		C307.9,97.5,307.4,96.4,306.5,96.4z"/>
</g>
</svg>
